<svg xmlns="http://www.w3.org/2000/svg" width="182" height="128" fill="none" viewBox="0 0 182 128">
  <path fill="#fff" d="M62.932 120.41h.91c.13.392.327.733.588 1.022.597.672 1.405 1.008 2.422 1.008.877 0 1.55-.187 2.016-.56.476-.373.714-.84.714-1.4 0-.149-.019-.285-.056-.406a.933.933 0 0 0-.168-.35 2.657 2.657 0 0 0-.238-.28 1.041 1.041 0 0 0-.336-.252 7.237 7.237 0 0 0-.378-.21 3.217 3.217 0 0 0-.448-.182 6.934 6.934 0 0 0-.462-.168l-.518-.154-.504-.168a11.953 11.953 0 0 1-.938-.294 8.36 8.36 0 0 1-.826-.364 3.326 3.326 0 0 1-.728-.504 2.216 2.216 0 0 1-.448-.672 2.166 2.166 0 0 1-.182-.896c0-.728.308-1.353.924-1.876.616-.523 1.428-.784 2.436-.784 1.325 0 2.347.434 3.066 1.302.308.373.523.803.644 1.288h-.91a2.258 2.258 0 0 0-.504-.868c-.55-.588-1.316-.882-2.296-.882-.775 0-1.377.177-1.806.532-.43.345-.644.775-.644 1.288 0 .644.434 1.153 1.302 1.526.29.131.896.331 1.82.602.383.121.69.229.924.322.243.084.518.21.826.378.308.159.546.327.714.504.177.177.327.401.448.672.13.271.196.569.196.896 0 .775-.331 1.437-.994 1.988-.653.541-1.535.812-2.646.812-1.4 0-2.473-.476-3.22-1.428a4.062 4.062 0 0 1-.7-1.442Zm9.517 2.59v-9.8h6.65v.84h-5.74v3.57h4.69v.84h-4.69v3.71h5.74v.84h-6.65Zm8.405 0v-7h.84v1.33h.014a2.41 2.41 0 0 1 .49-.7c.466-.467 1.068-.7 1.806-.7h.77v.77h-.77c-.672 0-1.228.229-1.666.686-.43.448-.644 1.036-.644 1.764V123h-.84Zm4.411-7h.91l1.68 6.23h1.47l1.68-6.23h.91l-1.96 7h-2.73l-1.96-7Zm8.098-1.652a.609.609 0 0 1-.182-.448c0-.177.06-.327.182-.448a.61.61 0 0 1 .448-.182.61.61 0 0 1 .448.182.609.609 0 0 1 .182.448c0 .177-.06.327-.182.448a.61.61 0 0 1-.448.182.61.61 0 0 1-.448-.182ZM93.39 123v-7h.84v7h-.84Zm3.58-.896c-.663-.7-.994-1.568-.994-2.604s.331-1.899.994-2.59c.672-.7 1.484-1.05 2.436-1.05 1.111 0 1.993.411 2.646 1.232.289.355.504.761.644 1.218h-.84a2.707 2.707 0 0 0-.518-.84c-.485-.56-1.129-.84-1.932-.84-.71 0-1.32.275-1.834.826-.504.541-.756 1.223-.756 2.044s.252 1.507.756 2.058c.513.541 1.125.812 1.834.812.812 0 1.475-.303 1.988-.91.243-.28.42-.583.532-.91h.84a3.98 3.98 0 0 1-.658 1.302c-.709.859-1.61 1.288-2.702 1.288-.952 0-1.764-.345-2.436-1.036Zm7.998 0c-.672-.691-1.008-1.559-1.008-2.604 0-1.045.336-1.913 1.008-2.604.672-.691 1.503-1.036 2.492-1.036.98 0 1.806.345 2.478 1.036.682.681 1.022 1.526 1.022 2.534v.35h-6.16c.038.737.308 1.353.812 1.848.504.495 1.12.742 1.848.742.803 0 1.461-.257 1.974-.77.243-.224.425-.481.546-.77h.84a3.612 3.612 0 0 1-.714 1.162c-.69.765-1.572 1.148-2.646 1.148-.989 0-1.82-.345-2.492-1.036Zm-.168-3.094h5.25a2.61 2.61 0 0 0-.84-1.694c-.476-.457-1.059-.686-1.75-.686-.69 0-1.278.224-1.764.672-.485.448-.784 1.017-.896 1.708Zm7.348 1.89h.91a2.2 2.2 0 0 0 .476.742c.448.485 1.059.728 1.834.728.635 0 1.106-.112 1.414-.336.317-.233.476-.541.476-.924a.82.82 0 0 0-.182-.532c-.121-.159-.317-.289-.588-.392a6.27 6.27 0 0 0-.714-.238 17.89 17.89 0 0 0-.896-.21 6.206 6.206 0 0 1-1.176-.322 2.236 2.236 0 0 1-.84-.616 1.577 1.577 0 0 1-.364-1.05c0-.513.229-.957.686-1.33.467-.373 1.101-.56 1.904-.56 1.008 0 1.806.341 2.394 1.022.252.289.434.625.546 1.008h-.91a1.886 1.886 0 0 0-.406-.63c-.42-.42-.961-.63-1.624-.63-.56 0-.994.112-1.302.336-.299.215-.448.476-.448.784 0 .168.047.322.14.462.093.131.205.243.336.336.131.084.313.163.546.238.243.075.453.135.63.182.187.037.429.084.728.14.336.075.63.159.882.252.261.084.509.205.742.364.243.149.429.341.56.574.131.233.196.504.196.812 0 .588-.238 1.073-.714 1.456-.467.383-1.139.574-2.016.574-1.12 0-1.988-.373-2.604-1.12a2.872 2.872 0 0 1-.616-1.12ZM91.014 43h1v50.512h-1z"/>
  <path fill="#fff" d="M111.014 61.818v.99h-40v-.99z"/>
  <path fill="#fff" d="m105.157 48.802.707.7-28.285 28.013-.707-.7z"/>
  <path fill="#fff" d="m105.863 76.115-.707.7-28.284-28.013.707-.7z"/>
  <path stroke="#fff" d="M87.014 89.55 91.507 94l4.492-4.45"/>
  <path fill="#fff" d="m10.409 84.684.111-.903a2.848 2.848 0 0 0 1.087-.458c.74-.51 1.172-1.27 1.297-2.28.108-.87.005-1.56-.309-2.07-.312-.518-.746-.811-1.301-.88a1.377 1.377 0 0 0-.41.006.93.93 0 0 0-.368.124 2.63 2.63 0 0 0-.307.202 1.042 1.042 0 0 0-.292.302 6.742 6.742 0 0 0-.254.35 3.216 3.216 0 0 0-.236.422c-.11.203-.184.349-.223.438l-.217.495-.228.48c-.148.358-.283.656-.407.895a8.364 8.364 0 0 1-.462.775 3.307 3.307 0 0 1-.59.66 2.223 2.223 0 0 1-1.633.433c-.723-.089-1.306-.471-1.749-1.147-.443-.675-.603-1.513-.48-2.513.163-1.316.72-2.277 1.669-2.884.408-.26.86-.42 1.357-.48l-.111.902a2.26 2.26 0 0 0-.924.394c-.65.474-1.036 1.198-1.157 2.17-.095.77.008 1.389.307 1.858.29.469.69.734 1.2.797.638.08 1.196-.29 1.673-1.105.166-.27.44-.848.821-1.732.167-.365.312-.658.433-.878a5.57 5.57 0 0 1 .476-.773c.196-.286.391-.502.588-.647.198-.154.438-.275.722-.362.285-.097.589-.125.913-.085.769.095 1.386.505 1.851 1.23.457.715.618 1.624.482 2.726-.172 1.39-.776 2.396-1.812 3.02a4.064 4.064 0 0 1-1.517.519Zm4.09-15.255c-1.234.602-2.559.667-3.976.195-1.417-.471-2.438-1.318-3.064-2.54-.626-1.222-.712-2.515-.258-3.878.496-1.488 1.452-2.512 2.869-3.073a5.196 5.196 0 0 1 1.956-.337l-.287.863a4.28 4.28 0 0 0-1.514.337c-1.092.472-1.834 1.297-2.227 2.475-.38 1.143-.312 2.208.205 3.197.516.988 1.386 1.686 2.608 2.093 1.222.407 2.336.37 3.342-.111 1.007-.482 1.7-1.293 2.08-2.436.402-1.204.277-2.337-.372-3.4a4.628 4.628 0 0 0-1.112-1.226l.288-.863c.59.413 1.077.914 1.461 1.505.862 1.31 1.04 2.727.532 4.25-.454 1.363-1.298 2.346-2.531 2.949Zm7.006-14.534-8.472-4.925 2.04-3.51c.535-.92 1.197-1.501 1.986-1.744.785-.256 1.566-.159 2.34.291.662.385 1.108.909 1.338 1.572.235.654.202 1.37-.098 2.145l4.595-.244-.527.908-4.5.218-1.512 2.603 3.268 1.9-.458.786Zm-3.537-3.108 1.584-2.724c.417-.718.57-1.352.458-1.903-.115-.563-.471-1.019-1.068-1.366-.597-.347-1.165-.429-1.704-.245-.541.17-1.021.615-1.439 1.333l-1.583 2.724 3.752 2.18ZM29.271 40.89c-1.37.06-2.612-.409-3.724-1.406-1.11-.998-1.71-2.181-1.797-3.552-.087-1.37.35-2.59 1.31-3.659.96-1.07 2.126-1.635 3.497-1.695 1.372-.061 2.613.407 3.724 1.405 1.111.997 1.71 2.181 1.798 3.551.087 1.37-.35 2.59-1.31 3.66-.96 1.07-2.126 1.634-3.497 1.695Zm-4.673-5.043c.08 1.113.599 2.1 1.557 2.96.959.86 1.995 1.27 3.11 1.23 1.115-.04 2.075-.508 2.879-1.404.804-.896 1.166-1.9 1.087-3.013-.08-1.113-.6-2.1-1.558-2.96-.958-.86-1.995-1.27-3.11-1.23-1.114.04-2.074.508-2.878 1.404-.805.896-1.167 1.9-1.087 3.013Zm16.922-5.464-5.908-7.819.726-.548 5.401 7.149 4.245-3.207.506.67-4.97 3.755Zm10.675-7.288-4.53-8.69.808-.421 4.141 7.945 4.718-2.459.388.745-5.525 2.88ZM69.691 6.504l-.16-.824 7.764-1.511.16.824-3.435.669 1.712 8.795-.894.173-1.711-8.794-3.436.668Zm17.47 5.319c-.955-.986-1.428-2.225-1.418-3.719.01-1.493.498-2.727 1.466-3.7.967-.974 2.17-1.457 3.607-1.447 1.437.009 2.633.507 3.588 1.493.956.986 1.428 2.226 1.419 3.719-.01 1.493-.498 2.727-1.466 3.7-.968.974-2.17 1.457-3.607 1.447-1.438-.009-2.634-.506-3.589-1.493Zm.674-6.841c-.78.797-1.174 1.84-1.182 3.128-.008 1.288.372 2.336 1.142 3.144.77.807 1.756 1.215 2.96 1.223 1.204.007 2.196-.388 2.976-1.185.78-.798 1.173-1.841 1.182-3.129.008-1.288-.373-2.336-1.142-3.143-.77-.808-1.756-1.216-2.96-1.223-1.204-.008-2.196.387-2.976 1.185Zm24.052 10.984 3.086-9.302 6.312 2.094-.265.798-5.448-1.808-1.124 3.389 4.452 1.476-.265.798-4.451-1.477-1.168 3.521 5.448 1.808-.265.797-6.312-2.094Zm12.19 4.576 4.682-3.026.136-5.508.861.47-.119 5.038 1.105.604 4.175-2.825.86.47-4.56 3.093-.013 5.575-.86-.47-.004-5.106-1.106-.603-4.297 2.758-.86-.47Zm12.696 7.667 6.204-7.587 3.089 2.526c.823.674 1.295 1.439 1.414 2.296.119.857-.114 1.643-.699 2.358-.585.716-1.309 1.1-2.173 1.153-.863.054-1.707-.256-2.531-.93l-2.384-1.95-2.216 2.71-.704-.576Zm3.452-2.784 2.384 1.95c.643.526 1.268.771 1.875.737.612-.041 1.143-.337 1.592-.886.449-.549.631-1.124.544-1.726-.081-.608-.443-1.176-1.086-1.701l-2.384-1.95-2.925 3.576Zm7.601 12.801 7.458-6.358.59.692-6.818 5.813 3.451 4.049-.639.545-4.042-4.741Zm9.452 10.354c.381-1.318 1.222-2.345 2.522-3.079 1.301-.733 2.614-.923 3.94-.567 1.326.356 2.342 1.16 3.048 2.411.707 1.252.869 2.537.488 3.856s-1.222 2.345-2.522 3.08c-1.301.733-2.614.922-3.94.566-1.326-.355-2.342-1.159-3.048-2.41-.707-1.252-.869-2.538-.488-3.857Zm6.272-2.815c-1.08-.28-2.181-.104-3.303.529-1.121.633-1.841 1.484-2.16 2.553-.318 1.07-.181 2.128.41 3.177.592 1.048 1.428 1.713 2.507 1.993 1.08.28 2.181.104 3.303-.53 1.121-.632 1.841-1.483 2.16-2.553.318-1.069.182-2.127-.41-3.176-.592-1.049-1.428-1.713-2.507-1.993Zm-.197 17.762 9.336-2.977 1.234 3.868c.323 1.013.31 1.894-.039 2.642-.337.755-.933 1.268-1.786 1.54-.73.233-1.417.212-2.063-.062-.643-.265-1.151-.77-1.525-1.512l-2.903 3.57-.319-1 2.857-3.483-.914-2.867-3.602 1.148-.276-.867Zm4.678-.536.957 3c.252.792.62 1.331 1.104 1.618.495.293 1.071.334 1.729.124.658-.21 1.1-.576 1.325-1.098.237-.517.229-1.17-.023-1.962l-.957-3.001-4.135 1.319Zm-.854 14.955 9.726-1.202.815 6.6-.833.103-.704-5.697-3.543.438.575 4.654-.834.103-.575-4.654-3.682.455.704 5.697-.834.103-.815-6.6Z"/>
</svg>
